<svg xmlns="http://www.w3.org/2000/svg" viewBox="0 0 148 32" role="img" aria-labelledby="title">
  <title id="title">Windchill</title>
  <rect width="148" height="32" rx="4" fill="#ffffff"/>
  <path d="M16 22 9 10h4l3 6 3-6h3l3 6 3-6h4l-7 12h-3l-4-7-4 7h-3Z" fill="#0f766e"/>
  <path d="M39 10h4v12h-4V10Zm8 0h4l5 6.6V10h4v12h-4l-5-6.6V22h-4V10Zm17 0h6c4 0 7 2.4 7 6s-3 6-7 6h-6V10Zm6 8.6c1.8 0 3-1 3-2.6s-1.2-2.6-3-2.6h-2v5.2h2Zm10-2.6c0-3.6 2.8-6.2 6.7-6.2 2.5 0 4.5 1 5.6 2.8l-3 1.8c-.7-.9-1.5-1.3-2.6-1.3-1.8 0-3.1 1.2-3.1 2.9s1.3 2.9 3.1 2.9c1.1 0 1.9-.4 2.6-1.3l3 1.8c-1.1 1.8-3.1 2.8-5.6 2.8-3.9 0-6.7-2.6-6.7-6.2Zm15-6h4v4.3h4.7V10h4v12h-4v-4.4H99V22h-4V10Zm17 0h4v12h-4V10Zm8 0h4v8.6h6.8V22H120V10Z" fill="#1f2937"/>
</svg>
